<?xml version="1.0" encoding="UTF-8"?>
<svg xmlns="http://www.w3.org/2000/svg" id="Layer_1" height="64" viewBox="0 0 56 64" width="56">
  <g id="Ball_8_">
    <g>
      <circle cx="28" cy="8" fill="#f06eaa" r="8"></circle>
    </g>
  </g>
  <g id="Head_16_">
    <g>
      <path d="m36 8h-16c-11.046 0-20 8.954-20 20v16c0 11.045 8.954 20 20 20h16c11.045 0 20-8.955 20-20v-16c0-11.046-8.955-20-20-20z" fill="#e6e6e6"></path>
    </g>
  </g>
  <g id="Face_1_">
    <g>
      <path d="m40 18h-24c-4.418 0-8 3.582-8 8v20c0 4.418 3.582 8 8 8h24c4.418 0 8-3.582 8-8v-20c0-4.418-3.582-8-8-8z" fill="#ffa564"></path>
    </g>
  </g>
  <g id="Eyes_4_">
    <g>
      <path clip-rule="evenodd" d="m18 28c-1.104 0-2 .895-2 2v12c0 1.104.896 2 2 2s2-.896 2-2v-12c0-1.105-.896-2-2-2zm20 0c-1.104 0-2 .895-2 2v12c0 1.104.896 2 2 2s2-.896 2-2v-12c0-1.105-.896-2-2-2z" fill="#4d311e" fill-rule="evenodd"></path>
    </g>
  </g>
  <g id="Eyebrows_3_">
    <g>
      <path clip-rule="evenodd" d="m47.913 19.675c-.292-1.198-1.416-1.909-2.508-1.588l-11.869 3.487c-1.093.32-1.741 1.553-1.448 2.75.293 1.198 1.416 1.909 2.508 1.588l11.869-3.487c1.092-.321 1.74-1.552 1.448-2.75zm-25.448 1.899-11.87-3.487c-1.092-.321-2.215.39-2.508 1.588s.355 2.43 1.448 2.75l11.869 3.487c1.093.321 2.216-.39 2.508-1.588.294-1.197-.355-2.429-1.447-2.75z" fill="#333" fill-rule="evenodd"></path>
    </g>
  </g>
  <g></g>
  <g></g>
  <g></g>
  <g></g>
  <g></g>
  <g></g>
  <g></g>
  <g></g>
  <g></g>
  <g></g>
  <g></g>
  <g></g>
  <g></g>
  <g></g>
  <g></g>
</svg>
